<svg width="18" height="11" viewBox="0 0 18 11" fill="none" xmlns="http://www.w3.org/2000/svg">
<g clipPath="url(#clip0_1909_7051)">
<path d="M9.79222 4.39779C9.3547 3.96024 8.6453 3.96024 8.20778 4.39779L2.39803 10.2077C1.9605 10.6453 1.25111 10.6453 0.813586 10.2077L0.792165 10.1863C0.35466 9.7488 0.35466 9.03946 0.792165 8.60194L8.20778 1.18605C8.6453 0.748507 9.3547 0.748507 9.79222 1.18605L17.2078 8.60194C17.6453 9.03946 17.6453 9.7488 17.2078 10.1863L17.1864 10.2077C16.7489 10.6453 16.0395 10.6453 15.602 10.2077L9.79222 4.39779Z" fill="#575F68"/>
</g>
<defs>
<clipPath id="clip0_1909_7051">
<rect width="10.6062" height="18" fill="white" transform="matrix(0 -1 1 0 0 11)"/>
</clipPath>
</defs>
</svg>
