<svg width="18" height="11" viewBox="0 0 18 11" fill="none" xmlns="http://www.w3.org/2000/svg">
    <g clipPath="url(#clip0_1909_7054)">
        <path d="M8.20778 6.60221C8.6453 7.03976 9.3547 7.03976 9.79222 6.60221L15.602 0.792253C16.0395 0.354709 16.7489 0.354708 17.1864 0.792253L17.2078 0.813674C17.6453 1.2512 17.6453 1.96054 17.2078 2.39806L9.79222 9.81395C9.3547 10.2515 8.6453 10.2515 8.20778 9.81395L0.792166 2.39806C0.35466 1.96054 0.354658 1.2512 0.792164 0.813674L0.813585 0.792253C1.25111 0.354708 1.9605 0.354708 2.39803 0.792253L8.20778 6.60221Z"
              fill="#575F68"/>
    </g>
    <defs>
        <clipPath id="clip0_1909_7054">
            <rect width="10.6062" height="18" fill="white" transform="matrix(0 1 -1 0 18 0)"/>
        </clipPath>
    </defs>
</svg>