<svg width="24" height="24" viewBox="0 0 24 24" fill="none" xmlns="http://www.w3.org/2000/svg">
    <path d="M1.36537 17.7885C1.12017 17.7885 0.914642 17.7056 0.748775 17.5397C0.582925 17.3738 0.5 17.1683 0.5 16.9231V16.5693C0.5 15.8937 0.843833 15.3462 1.5315 14.927C2.21918 14.5078 3.12567 14.2982 4.25098 14.2982C4.45414 14.2982 4.64675 14.3049 4.8288 14.3184C5.01087 14.3318 5.18715 14.3552 5.35765 14.3885C5.16753 14.6811 5.02834 14.9956 4.94007 15.332C4.85181 15.6684 4.80768 16.0246 4.80768 16.4005V17.7885H1.36537ZM7.4078 17.7885C7.14747 17.7885 6.93108 17.7019 6.75865 17.5287C6.5862 17.3554 6.49998 17.1408 6.49998 16.8847V16.4385C6.49998 15.4834 7.00607 14.7132 8.01825 14.128C9.03042 13.5427 10.3564 13.2501 11.9962 13.2501C13.6512 13.2501 14.9823 13.5427 15.9893 14.128C16.9964 14.7132 17.4999 15.4834 17.4999 16.4385V16.8847C17.4999 17.1408 17.4133 17.3554 17.24 17.5287C17.0668 17.7019 16.8522 17.7885 16.5961 17.7885H7.4078ZM19.1922 17.7885V16.4005C19.1922 16.0246 19.1447 15.6684 19.0497 15.332C18.9546 14.9956 18.8188 14.6811 18.6423 14.3885C18.8127 14.3552 18.9887 14.3318 19.1701 14.3184C19.3516 14.3049 19.5448 14.2982 19.7499 14.2982C20.8749 14.2982 21.7812 14.5078 22.4687 14.927C23.1562 15.3462 23.4999 15.8937 23.4999 16.5693V16.9231C23.4999 17.1683 23.417 17.3738 23.2511 17.5397C23.0853 17.7056 22.8797 17.7885 22.6346 17.7885H19.1922ZM11.9999 14.7501C10.9538 14.7501 10.0589 14.8921 9.31532 15.176C8.57174 15.46 8.15892 15.7988 8.07687 16.1924V16.2885H15.923V16.1924C15.8307 15.7885 15.4153 15.4472 14.6769 15.1683C13.9384 14.8895 13.0461 14.7501 11.9999 14.7501ZM4.24998 13.327C3.77689 13.327 3.37498 13.1594 3.04423 12.8243C2.71346 12.4891 2.54808 12.0862 2.54808 11.6155C2.54808 11.1448 2.71346 10.7419 3.04423 10.4067C3.37498 10.0716 3.77689 9.90396 4.24998 9.90396C4.72304 9.90396 5.12656 10.0716 5.46053 10.4067C5.79449 10.7419 5.96147 11.1448 5.96147 11.6155C5.96147 12.0862 5.79389 12.4891 5.45872 12.8243C5.12356 13.1594 4.72064 13.327 4.24998 13.327ZM19.7499 13.327C19.2769 13.327 18.8733 13.1594 18.5394 12.8243C18.2054 12.4891 18.0384 12.0862 18.0384 11.6155C18.0384 11.1448 18.206 10.7419 18.5412 10.4067C18.8763 10.0716 19.2793 9.90396 19.7499 9.90396C20.223 9.90396 20.6249 10.0716 20.9557 10.4067C21.2864 10.7419 21.4518 11.1448 21.4518 11.6155C21.4518 12.0862 21.2864 12.4891 20.9557 12.8243C20.6249 13.1594 20.223 13.327 19.7499 13.327ZM11.9999 12.5001C11.2788 12.5001 10.6658 12.2477 10.161 11.7429C9.65622 11.2381 9.40382 10.6251 9.40382 9.90396C9.40382 9.18283 9.65622 8.56986 10.161 8.06506C10.6658 7.56026 11.2788 7.30786 11.9999 7.30786C12.7211 7.30786 13.3341 7.56026 13.8389 8.06506C14.3437 8.56986 14.5961 9.18283 14.5961 9.90396C14.5961 10.6251 14.3437 11.2381 13.8389 11.7429C13.3341 12.2477 12.7211 12.5001 11.9999 12.5001ZM12.0016 8.80781C11.6915 8.80781 11.431 8.91269 11.2201 9.12246C11.0092 9.33224 10.9038 9.59219 10.9038 9.90229C10.9038 10.2124 11.0087 10.4729 11.2184 10.6838C11.4282 10.8947 11.6882 11.0001 11.9983 11.0001C12.3084 11.0001 12.5689 10.8953 12.7798 10.6855C12.9907 10.4757 13.0961 10.2158 13.0961 9.90566C13.0961 9.59556 12.9912 9.33506 12.7815 9.12416C12.5717 8.91326 12.3117 8.80781 12.0016 8.80781Z" fill="black"/>
</svg>
