<svg width="202" height="48" viewBox="0 0 202 48" fill="none" xmlns="http://www.w3.org/2000/svg">
<g id="Vector">
<path d="M4.69137 42.4258V22.6065H8.28169V30.9968H17.4656V22.6065H21.0656V42.4258H17.4656V34.0065H8.28169V42.4258H4.69137Z" fill="#664810"/>
<path d="M29.093 42.7258C28.1511 42.7258 27.3027 42.5581 26.5478 42.2226C25.7994 41.8806 25.2059 41.3774 24.7672 40.7129C24.3349 40.0484 24.1188 39.229 24.1188 38.2548C24.1188 37.4161 24.2736 36.7226 24.5833 36.1742C24.893 35.6258 25.3156 35.1871 25.851 34.8581C26.3865 34.529 26.9898 34.2806 27.6607 34.1129C28.3381 33.9387 29.0381 33.8129 29.7607 33.7355C30.6317 33.6452 31.3381 33.5645 31.8801 33.4935C32.422 33.4161 32.8156 33.3 33.0607 33.1452C33.3123 32.9839 33.4381 32.7355 33.4381 32.4V32.3419C33.4381 31.6129 33.222 31.0484 32.7898 30.6484C32.3575 30.2484 31.7349 30.0484 30.922 30.0484C30.064 30.0484 29.3833 30.2355 28.8801 30.6097C28.3833 30.9839 28.0478 31.4258 27.8736 31.9355L24.6027 31.471C24.8607 30.5677 25.2865 29.8129 25.8801 29.2064C26.4736 28.5935 27.1994 28.1355 28.0575 27.8323C28.9156 27.5226 29.864 27.3677 30.9027 27.3677C31.6188 27.3677 32.3317 27.4516 33.0414 27.6194C33.7511 27.7871 34.3994 28.0645 34.9865 28.4516C35.5736 28.8323 36.0446 29.3516 36.3994 30.0097C36.7607 30.6677 36.9414 31.4903 36.9414 32.4774V42.4258H33.5736V40.3839H33.4575C33.2446 40.7968 32.9446 41.1839 32.5575 41.5452C32.1769 41.9 31.6962 42.1871 31.1156 42.4065C30.5414 42.6194 29.8672 42.7258 29.093 42.7258ZM30.0027 40.1516C30.7059 40.1516 31.3156 40.0129 31.8317 39.7355C32.3478 39.4516 32.7446 39.0774 33.022 38.6129C33.3059 38.1484 33.4478 37.6419 33.4478 37.0935V35.3419C33.3381 35.4323 33.151 35.5161 32.8865 35.5935C32.6285 35.671 32.3381 35.7387 32.0156 35.7968C31.693 35.8548 31.3736 35.9065 31.0575 35.9516C30.7414 35.9968 30.4672 36.0355 30.2349 36.0677C29.7123 36.1387 29.2446 36.2548 28.8317 36.4161C28.4188 36.5774 28.093 36.8032 27.8543 37.0935C27.6156 37.3774 27.4962 37.7452 27.4962 38.1968C27.4962 38.8419 27.7317 39.329 28.2027 39.6581C28.6736 39.9871 29.2736 40.1516 30.0027 40.1516Z" fill="#664810"/>
<path d="M40.464 48V27.5613H43.9091V30.0194H44.1123C44.293 29.6581 44.5478 29.2742 44.8769 28.8677C45.2059 28.4548 45.6511 28.1032 46.2123 27.8129C46.7736 27.5161 47.4898 27.3677 48.3607 27.3677C49.5091 27.3677 50.5446 27.6613 51.4672 28.2484C52.3962 28.829 53.1317 29.6903 53.6736 30.8323C54.222 31.9677 54.4962 33.3613 54.4962 35.0129C54.4962 36.6452 54.2285 38.0323 53.693 39.1742C53.1575 40.3161 52.4285 41.1871 51.5059 41.7871C50.5833 42.3871 49.5381 42.6871 48.3704 42.6871C47.5188 42.6871 46.8123 42.5452 46.251 42.2613C45.6898 41.9774 45.2381 41.6355 44.8962 41.2355C44.5607 40.829 44.2994 40.4452 44.1123 40.0839H43.9672V48H40.464ZM43.8994 34.9935C43.8994 35.9548 44.0349 36.7968 44.3059 37.5194C44.5833 38.2419 44.9801 38.8065 45.4962 39.2129C46.0188 39.6129 46.6511 39.8129 47.393 39.8129C48.1672 39.8129 48.8156 39.6064 49.3381 39.1935C49.8607 38.7742 50.2543 38.2032 50.5188 37.4806C50.7898 36.7516 50.9252 35.9226 50.9252 34.9935C50.9252 34.071 50.793 33.2516 50.5285 32.5355C50.264 31.8194 49.8704 31.2581 49.3478 30.8516C48.8252 30.4452 48.1736 30.2419 47.393 30.2419C46.6446 30.2419 46.0091 30.4387 45.4865 30.8323C44.964 31.2258 44.5672 31.7774 44.2962 32.4871C44.0317 33.1968 43.8994 34.0323 43.8994 34.9935Z" fill="#664810"/>
<path d="M57.4962 48V27.5613H60.9414V30.0194H61.1446C61.3252 29.6581 61.5801 29.2742 61.9091 28.8677C62.2381 28.4548 62.6833 28.1032 63.2446 27.8129C63.8059 27.5161 64.522 27.3677 65.393 27.3677C66.5414 27.3677 67.5769 27.6613 68.4994 28.2484C69.4285 28.829 70.164 29.6903 70.7059 30.8323C71.2543 31.9677 71.5285 33.3613 71.5285 35.0129C71.5285 36.6452 71.2607 38.0323 70.7252 39.1742C70.1898 40.3161 69.4607 41.1871 68.5381 41.7871C67.6156 42.3871 66.5704 42.6871 65.4027 42.6871C64.551 42.6871 63.8446 42.5452 63.2833 42.2613C62.722 41.9774 62.2704 41.6355 61.9285 41.2355C61.593 40.829 61.3317 40.4452 61.1446 40.0839H60.9994V48H57.4962ZM60.9317 34.9935C60.9317 35.9548 61.0672 36.7968 61.3381 37.5194C61.6156 38.2419 62.0123 38.8065 62.5285 39.2129C63.051 39.6129 63.6833 39.8129 64.4252 39.8129C65.1994 39.8129 65.8478 39.6064 66.3704 39.1935C66.893 38.7742 67.2865 38.2032 67.551 37.4806C67.822 36.7516 67.9575 35.9226 67.9575 34.9935C67.9575 34.071 67.8252 33.2516 67.5607 32.5355C67.2962 31.8194 66.9027 31.2581 66.3801 30.8516C65.8575 30.4452 65.2059 30.2419 64.4252 30.2419C63.6769 30.2419 63.0414 30.4387 62.5188 30.8323C61.9962 31.2258 61.5994 31.7774 61.3285 32.4871C61.064 33.1968 60.9317 34.0323 60.9317 34.9935Z" fill="#664810"/>
<path d="M74.5285 42.4258V27.5613H78.0317V42.4258H74.5285ZM76.2898 25.4516C75.7349 25.4516 75.2575 25.2677 74.8575 24.9C74.4575 24.5258 74.2575 24.0774 74.2575 23.5548C74.2575 23.0258 74.4575 22.5774 74.8575 22.2097C75.2575 21.8355 75.7349 21.6484 76.2898 21.6484C76.851 21.6484 77.3285 21.8355 77.722 22.2097C78.122 22.5774 78.322 23.0258 78.322 23.5548C78.322 24.0774 78.122 24.5258 77.722 24.9C77.3285 25.2677 76.851 25.4516 76.2898 25.4516Z" fill="#664810"/>
<path d="M85.1373 33.7161V42.4258H81.6341V27.5613H84.9825V30.0871H85.1567C85.4986 29.2548 86.0438 28.5935 86.7922 28.1032C87.547 27.6129 88.4793 27.3677 89.589 27.3677C90.6148 27.3677 91.5083 27.5871 92.2696 28.0258C93.0373 28.4645 93.6309 29.1 94.0502 29.9323C94.476 30.7645 94.6857 31.7742 94.6793 32.9613V42.4258H91.176V33.5032C91.176 32.5097 90.918 31.7323 90.4019 31.171C89.8922 30.6097 89.1857 30.329 88.2825 30.329C87.6696 30.329 87.1244 30.4645 86.647 30.7355C86.176 31 85.8051 31.3839 85.5341 31.8871C85.2696 32.3903 85.1373 33 85.1373 33.7161Z" fill="#664810"/>
<path d="M104.821 42.7161C103.331 42.7161 102.044 42.4065 100.96 41.7871C99.8825 41.1613 99.0535 40.2774 98.4728 39.1355C97.8922 37.9871 97.6019 36.6355 97.6019 35.0806C97.6019 33.5516 97.8922 32.2097 98.4728 31.0548C99.0599 29.8935 99.8793 28.9903 100.931 28.3452C101.983 27.6936 103.218 27.3677 104.637 27.3677C105.553 27.3677 106.418 27.5161 107.231 27.8129C108.05 28.1032 108.773 28.5548 109.399 29.1677C110.031 29.7806 110.528 30.5613 110.889 31.5097C111.25 32.4516 111.431 33.5742 111.431 34.8774V35.9516H99.247V33.5903H108.073C108.066 32.9194 107.921 32.3226 107.637 31.8C107.353 31.271 106.957 30.8548 106.447 30.5516C105.944 30.2484 105.357 30.0968 104.686 30.0968C103.97 30.0968 103.341 30.271 102.799 30.6194C102.257 30.9613 101.834 31.4129 101.531 31.9742C101.234 32.529 101.083 33.1387 101.076 33.8032V35.8645C101.076 36.729 101.234 37.471 101.55 38.0903C101.866 38.7032 102.308 39.1742 102.876 39.5032C103.444 39.8258 104.108 39.9871 104.87 39.9871C105.379 39.9871 105.841 39.9161 106.253 39.7742C106.666 39.6258 107.024 39.4097 107.328 39.1258C107.631 38.8419 107.86 38.4903 108.015 38.071L111.286 38.4387C111.079 39.3032 110.686 40.0581 110.105 40.7032C109.531 41.3419 108.795 41.8387 107.899 42.1936C107.002 42.5419 105.976 42.7161 104.821 42.7161Z" fill="#664810"/>
<path d="M126.143 31.4903L122.949 31.8387C122.859 31.5161 122.701 31.2129 122.475 30.929C122.256 30.6452 121.959 30.4161 121.585 30.2419C121.211 30.0677 120.753 29.9806 120.211 29.9806C119.482 29.9806 118.869 30.1387 118.372 30.4548C117.882 30.771 117.64 31.1806 117.646 31.6839C117.64 32.1161 117.798 32.4677 118.12 32.7387C118.449 33.0097 118.991 33.2323 119.746 33.4065L122.282 33.9484C123.688 34.2516 124.733 34.7323 125.417 35.3903C126.107 36.0484 126.456 36.9097 126.462 37.9742C126.456 38.9097 126.182 39.7355 125.64 40.4516C125.104 41.1613 124.359 41.7161 123.404 42.1161C122.449 42.5161 121.353 42.7161 120.114 42.7161C118.295 42.7161 116.83 42.3355 115.72 41.5742C114.611 40.8065 113.949 39.7387 113.737 38.371L117.153 38.0419C117.308 38.7129 117.637 39.2194 118.14 39.5613C118.643 39.9032 119.298 40.0742 120.104 40.0742C120.937 40.0742 121.604 39.9032 122.107 39.5613C122.617 39.2194 122.872 38.7968 122.872 38.2935C122.872 37.8677 122.708 37.5161 122.378 37.2387C122.056 36.9613 121.553 36.7484 120.869 36.6L118.333 36.0677C116.908 35.771 115.853 35.271 115.169 34.5677C114.485 33.8581 114.146 32.9613 114.153 31.8774C114.146 30.9613 114.395 30.1677 114.898 29.4968C115.407 28.8194 116.114 28.2968 117.017 27.929C117.927 27.5548 118.975 27.3677 120.162 27.3677C121.904 27.3677 123.275 27.7387 124.275 28.4806C125.282 29.2226 125.904 30.2258 126.143 31.4903Z" fill="#664810"/>
<path d="M141.099 31.4903L137.906 31.8387C137.816 31.5161 137.658 31.2129 137.432 30.929C137.212 30.6452 136.916 30.4161 136.541 30.2419C136.167 30.0677 135.709 29.9806 135.167 29.9806C134.438 29.9806 133.825 30.1387 133.328 30.4548C132.838 30.771 132.596 31.1806 132.603 31.6839C132.596 32.1161 132.754 32.4677 133.077 32.7387C133.406 33.0097 133.948 33.2323 134.703 33.4065L137.238 33.9484C138.645 34.2516 139.69 34.7323 140.374 35.3903C141.064 36.0484 141.412 36.9097 141.419 37.9742C141.412 38.9097 141.138 39.7355 140.596 40.4516C140.061 41.1613 139.316 41.7161 138.361 42.1161C137.406 42.5161 136.309 42.7161 135.07 42.7161C133.251 42.7161 131.787 42.3355 130.677 41.5742C129.567 40.8065 128.906 39.7387 128.693 38.371L132.109 38.0419C132.264 38.7129 132.593 39.2194 133.096 39.5613C133.599 39.9032 134.254 40.0742 135.061 40.0742C135.893 40.0742 136.561 39.9032 137.064 39.5613C137.574 39.2194 137.828 38.7968 137.828 38.2935C137.828 37.8677 137.664 37.5161 137.335 37.2387C137.012 36.9613 136.509 36.7484 135.825 36.6L133.29 36.0677C131.864 35.771 130.809 35.271 130.125 34.5677C129.441 33.8581 129.103 32.9613 129.109 31.8774C129.103 30.9613 129.351 30.1677 129.854 29.4968C130.364 28.8194 131.07 28.2968 131.974 27.929C132.883 27.5548 133.932 27.3677 135.119 27.3677C136.861 27.3677 138.232 27.7387 139.232 28.4806C140.238 29.2226 140.861 30.2258 141.099 31.4903Z" fill="#664810"/>
<path d="M153.767 42.4258H149.935L156.912 22.6065H161.345L168.332 42.4258H164.499L159.206 26.671H159.051L153.767 42.4258ZM153.893 34.6548H164.345V37.5387H153.893V34.6548Z" fill="#664810"/>
<path d="M170.787 48V27.5613H174.233V30.0194H174.436C174.616 29.6581 174.871 29.2742 175.2 28.8677C175.529 28.4548 175.974 28.1032 176.536 27.8129C177.097 27.5161 177.813 27.3677 178.684 27.3677C179.833 27.3677 180.868 27.6613 181.791 28.2484C182.72 28.829 183.455 29.6903 183.997 30.8323C184.545 31.9677 184.82 33.3613 184.82 35.0129C184.82 36.6452 184.552 38.0323 184.016 39.1742C183.481 40.3161 182.752 41.1871 181.829 41.7871C180.907 42.3871 179.862 42.6871 178.694 42.6871C177.842 42.6871 177.136 42.5452 176.574 42.2613C176.013 41.9774 175.562 41.6355 175.22 41.2355C174.884 40.829 174.623 40.4452 174.436 40.0839H174.291V48H170.787ZM174.223 34.9935C174.223 35.9548 174.358 36.7968 174.629 37.5194C174.907 38.2419 175.303 38.8065 175.82 39.2129C176.342 39.6129 176.974 39.8129 177.716 39.8129C178.491 39.8129 179.139 39.6064 179.662 39.1935C180.184 38.7742 180.578 38.2032 180.842 37.4806C181.113 36.7516 181.249 35.9226 181.249 34.9935C181.249 34.071 181.116 33.2516 180.852 32.5355C180.587 31.8194 180.194 31.2581 179.671 30.8516C179.149 30.4452 178.497 30.2419 177.716 30.2419C176.968 30.2419 176.332 30.4387 175.81 30.8323C175.287 31.2258 174.891 31.7774 174.62 32.4871C174.355 33.1968 174.223 34.0323 174.223 34.9935Z" fill="#664810"/>
<path d="M187.82 48V27.5613H191.265V30.0194H191.468C191.649 29.6581 191.903 29.2742 192.233 28.8677C192.562 28.4548 193.007 28.1032 193.568 27.8129C194.129 27.5161 194.845 27.3677 195.716 27.3677C196.865 27.3677 197.9 27.6613 198.823 28.2484C199.752 28.829 200.487 29.6903 201.029 30.8323C201.578 31.9677 201.852 33.3613 201.852 35.0129C201.852 36.6452 201.584 38.0323 201.049 39.1742C200.513 40.3161 199.784 41.1871 198.862 41.7871C197.939 42.3871 196.894 42.6871 195.726 42.6871C194.874 42.6871 194.168 42.5452 193.607 42.2613C193.045 41.9774 192.594 41.6355 192.252 41.2355C191.916 40.829 191.655 40.4452 191.468 40.0839H191.323V48H187.82ZM191.255 34.9935C191.255 35.9548 191.391 36.7968 191.662 37.5194C191.939 38.2419 192.336 38.8065 192.852 39.2129C193.374 39.6129 194.007 39.8129 194.749 39.8129C195.523 39.8129 196.171 39.6064 196.694 39.1935C197.216 38.7742 197.61 38.2032 197.874 37.4806C198.145 36.7516 198.281 35.9226 198.281 34.9935C198.281 34.071 198.149 33.2516 197.884 32.5355C197.62 31.8194 197.226 31.2581 196.703 30.8516C196.181 30.4452 195.529 30.2419 194.749 30.2419C194 30.2419 193.365 30.4387 192.842 30.8323C192.32 31.2258 191.923 31.7774 191.652 32.4871C191.387 33.1968 191.255 34.0323 191.255 34.9935Z" fill="#664810"/>
<path d="M0 2.05936V0H12.271V2.05936H7.32387V15.8555H4.93935V2.05936H0Z" fill="#664810"/>
<path d="M17.1116 8.79484V15.8555H14.7968V0H17.0806V5.89935H17.2277C17.5065 5.25936 17.9323 4.75097 18.5052 4.37419C19.0781 3.99742 19.8265 3.80903 20.7503 3.80903C21.5658 3.80903 22.2781 3.97677 22.8871 4.31226C23.5013 4.64774 23.9761 5.14839 24.3116 5.81419C24.6523 6.47484 24.8226 7.30065 24.8226 8.29161V15.8555H22.5077V8.57032C22.5077 7.69806 22.2832 7.02194 21.8342 6.54194C21.3852 6.05677 20.7606 5.81419 19.9606 5.81419C19.4135 5.81419 18.9232 5.93032 18.4897 6.16258C18.0613 6.39484 17.7232 6.73548 17.4755 7.18452C17.2329 7.62839 17.1116 8.16516 17.1116 8.79484Z" fill="#664810"/>
<path d="M33.0368 16.0955C31.8652 16.0955 30.8561 15.8452 30.0097 15.3445C29.1684 14.8387 28.5181 14.129 28.0587 13.2155C27.6045 12.2968 27.3774 11.2206 27.3774 9.9871C27.3774 8.76903 27.6045 7.69548 28.0587 6.76645C28.5181 5.83742 29.1581 5.11226 29.9787 4.59097C30.8045 4.06968 31.7697 3.80903 32.8742 3.80903C33.5452 3.80903 34.1955 3.92 34.8252 4.14194C35.4548 4.36387 36.02 4.71226 36.5206 5.1871C37.0213 5.66194 37.4161 6.27871 37.7052 7.03742C37.9942 7.79097 38.1387 8.7071 38.1387 9.78581V10.6065H28.6858V8.87226H35.8703C35.8703 8.26323 35.7465 7.72387 35.4987 7.25419C35.251 6.77936 34.9026 6.40516 34.4535 6.13161C34.0097 5.85806 33.4884 5.72129 32.8897 5.72129C32.2394 5.72129 31.6716 5.88129 31.1865 6.20129C30.7065 6.51613 30.3348 6.92903 30.0716 7.44C29.8135 7.94581 29.6845 8.49548 29.6845 9.08903V10.4439C29.6845 11.2387 29.8239 11.9148 30.1026 12.4723C30.3865 13.0297 30.7813 13.4555 31.2871 13.7497C31.7929 14.0387 32.3839 14.1832 33.06 14.1832C33.4987 14.1832 33.8987 14.1213 34.26 13.9974C34.6213 13.8684 34.9336 13.6774 35.1968 13.4245C35.46 13.1716 35.6613 12.8594 35.8006 12.4877L37.9916 12.8826C37.8161 13.5277 37.5013 14.0929 37.0471 14.5781C36.5981 15.0581 36.0329 15.4323 35.3516 15.7006C34.6755 15.9639 33.9039 16.0955 33.0368 16.0955Z" fill="#664810"/>
</g>
</svg>
