<svg width="24" height="24" viewBox="0 0 24 24" fill="none" xmlns="http://www.w3.org/2000/svg">
    <path d="M16.1008 13.3L14.6508 11.85C14.8008 11.0666 14.5758 10.3333 13.9758 9.64998C13.3758 8.96664 12.6008 8.69998 11.6508 8.84998L10.2008 7.39998C10.4841 7.26664 10.7716 7.16664 11.0633 7.09998C11.3549 7.03331 11.6674 6.99998 12.0008 6.99998C13.2508 6.99998 14.3133 7.43748 15.1883 8.31248C16.0633 9.18748 16.5008 10.25 16.5008 11.5C16.5008 11.8333 16.4674 12.1458 16.4008 12.4375C16.3341 12.7291 16.2341 13.0166 16.1008 13.3ZM19.3008 16.45L17.8508 15.05C18.4841 14.5666 19.0466 14.0375 19.5383 13.4625C20.0299 12.8875 20.4508 12.2333 20.8008 11.5C19.9674 9.81664 18.7716 8.47914 17.2133 7.48748C15.6549 6.49581 13.9174 5.99998 12.0008 5.99998C11.5174 5.99998 11.0424 6.03331 10.5758 6.09998C10.1091 6.16664 9.65078 6.26664 9.20078 6.39998L7.65078 4.84998C8.33411 4.56664 9.03411 4.35414 9.75078 4.21248C10.4674 4.07081 11.2174 3.99998 12.0008 3.99998C14.3841 3.99998 16.5258 4.62914 18.4258 5.88748C20.3258 7.14581 21.7508 8.78331 22.7008 10.8C22.7508 10.8833 22.7841 10.9875 22.8008 11.1125C22.8174 11.2375 22.8258 11.3666 22.8258 11.5C22.8258 11.6333 22.8133 11.7625 22.7883 11.8875C22.7633 12.0125 22.7341 12.1166 22.7008 12.2C22.3174 13.05 21.8383 13.8333 21.2633 14.55C20.6883 15.2666 20.0341 15.9 19.3008 16.45ZM19.1008 21.9L15.6008 18.45C15.0174 18.6333 14.4299 18.7708 13.8383 18.8625C13.2466 18.9541 12.6341 19 12.0008 19C9.61745 19 7.47578 18.3708 5.57578 17.1125C3.67578 15.8541 2.25078 14.2166 1.30078 12.2C1.25078 12.1166 1.21745 12.0125 1.20078 11.8875C1.18411 11.7625 1.17578 11.6333 1.17578 11.5C1.17578 11.3666 1.18411 11.2416 1.20078 11.125C1.21745 11.0083 1.25078 10.9083 1.30078 10.825C1.65078 10.075 2.06745 9.38331 2.55078 8.74998C3.03411 8.11664 3.56745 7.53331 4.15078 6.99998L2.07578 4.89998C1.89245 4.71664 1.80078 4.48748 1.80078 4.21248C1.80078 3.93748 1.90078 3.69998 2.10078 3.49998C2.28411 3.31664 2.51745 3.22498 2.80078 3.22498C3.08411 3.22498 3.31745 3.31664 3.50078 3.49998L20.5008 20.5C20.6841 20.6833 20.7799 20.9125 20.7883 21.1875C20.7966 21.4625 20.7008 21.7 20.5008 21.9C20.3174 22.0833 20.0841 22.175 19.8008 22.175C19.5174 22.175 19.2841 22.0833 19.1008 21.9ZM5.55078 8.39998C5.06745 8.83331 4.62578 9.30831 4.22578 9.82498C3.82578 10.3416 3.48411 10.9 3.20078 11.5C4.03411 13.1833 5.22995 14.5208 6.78828 15.5125C8.34661 16.5041 10.0841 17 12.0008 17C12.3341 17 12.6591 16.9791 12.9758 16.9375C13.2924 16.8958 13.6174 16.85 13.9508 16.8L13.0508 15.85C12.8674 15.9 12.6924 15.9375 12.5258 15.9625C12.3591 15.9875 12.1841 16 12.0008 16C10.7508 16 9.68828 15.5625 8.81328 14.6875C7.93828 13.8125 7.50078 12.75 7.50078 11.5C7.50078 11.3166 7.51328 11.1416 7.53828 10.975C7.56328 10.8083 7.60078 10.6333 7.65078 10.45L5.55078 8.39998Z" fill="black"/>
</svg>
