<svg width="24" height="24" viewBox="0 0 24 24" fill="none" xmlns="http://www.w3.org/2000/svg">
    <path d="M5.99997 15.8443C6.22689 15.6891 6.47016 15.5737 6.72977 15.4981C6.98939 15.4224 7.26536 15.3846 7.55768 15.3846H8.1923V3.99998H7.75C7.26922 3.99998 6.85735 4.17145 6.5144 4.5144C6.17145 4.85735 5.99997 5.26922 5.99997 5.75V15.8443ZM9.69225 15.3846H18V4.3077C18 4.21795 17.9711 4.14423 17.9134 4.08653C17.8557 4.02883 17.782 3.99998 17.6922 3.99998H9.69225V15.3846ZM7.55768 21.5C6.71281 21.5 5.99198 21.2016 5.3952 20.6048C4.7984 20.008 4.5 19.2871 4.5 18.4423V5.75C4.5 4.84743 4.81602 4.08013 5.44807 3.44808C6.08012 2.81603 6.84743 2.5 7.75 2.5H17.6922C18.191 2.5 18.6169 2.67661 18.9701 3.02982C19.3233 3.38302 19.5 3.80898 19.5 4.3077V16.4481C19.5 16.5686 19.4538 16.6766 19.3615 16.7721C19.2692 16.8676 19.1198 16.9596 18.9134 17.048C18.6224 17.1519 18.3878 17.3282 18.2095 17.5769C18.0313 17.8256 17.9422 18.1141 17.9422 18.4423C17.9422 18.7641 18.0297 19.0519 18.2047 19.3058C18.3797 19.5596 18.6128 19.7365 18.9038 19.8365C19.0922 19.9109 19.2387 20.0147 19.3432 20.1481C19.4477 20.2814 19.5 20.4256 19.5 20.5807V20.7346C19.5 20.9474 19.4281 21.1282 19.2845 21.2769C19.141 21.4256 18.9628 21.5 18.75 21.5H7.55768ZM7.55768 20H16.9019C16.757 19.7731 16.6442 19.5324 16.5634 19.2779C16.4827 19.0234 16.4423 18.7448 16.4423 18.4423C16.4423 18.1564 16.4801 17.882 16.5558 17.6192C16.6314 17.3564 16.7468 17.1115 16.9019 16.8846H7.55768C7.11153 16.8846 6.74037 17.0368 6.4442 17.3413C6.14805 17.6458 5.99997 18.0128 5.99997 18.4423C5.99997 18.8884 6.14805 19.2596 6.4442 19.5558C6.74037 19.8519 7.11153 20 7.55768 20Z" fill="black"/>
</svg>
