<svg width="24" height="24" viewBox="0 0 24 24" fill="none" xmlns="http://www.w3.org/2000/svg">
    <path d="M5.3077 20.4999C4.80257 20.4999 4.375 20.3249 4.025 19.9749C3.675 19.6249 3.5 19.1974 3.5 18.6922V5.30767C3.5 4.80254 3.675 4.37497 4.025 4.02497C4.375 3.67497 4.80257 3.49997 5.3077 3.49997H13.9635L12.4635 4.99995H5.3077C5.23077 4.99995 5.16024 5.032 5.09612 5.0961C5.03202 5.16022 4.99997 5.23074 4.99997 5.30767V18.6922C4.99997 18.7692 5.03202 18.8397 5.09612 18.9038C5.16024 18.9679 5.23077 18.9999 5.3077 18.9999H18.6923C18.7692 18.9999 18.8397 18.9679 18.9038 18.9038C18.9679 18.8397 19 18.7692 19 18.6922V11.473L20.5 9.97302V18.6922C20.5 19.1974 20.325 19.6249 19.975 19.9749C19.625 20.3249 19.1974 20.4999 18.6923 20.4999H5.3077ZM9.5 13.5961V11.8153C9.5 11.5743 9.5468 11.3426 9.6404 11.1202C9.73398 10.8977 9.86283 10.7045 10.0269 10.5403L18.5596 2.00767C18.7147 1.85254 18.8853 1.7394 19.0711 1.66825C19.257 1.5971 19.4461 1.56152 19.6385 1.56152C19.8346 1.56152 20.023 1.5971 20.2038 1.66825C20.3846 1.7394 20.5493 1.84933 20.698 1.99805L21.9538 3.24997C22.0987 3.40509 22.2099 3.57624 22.2874 3.76342C22.365 3.95059 22.4038 4.14032 22.4038 4.33262C22.4038 4.52494 22.3708 4.71148 22.3048 4.89225C22.2387 5.073 22.1281 5.24094 21.973 5.39607L13.4115 13.9576C13.2474 14.1217 13.0541 14.2531 12.8317 14.3518C12.6092 14.4506 12.3775 14.4999 12.1365 14.4999H10.4039C10.1462 14.4999 9.93111 14.4137 9.75868 14.2412C9.58623 14.0688 9.5 13.8538 9.5 13.5961ZM11 12.9999H12.2461L18.4789 6.76722L17.8558 6.14415L17.1885 5.50185L11 11.6903V12.9999Z" fill="black"/>
</svg>
