<svg width="24" height="24" viewBox="0 0 24 24" fill="none" xmlns="http://www.w3.org/2000/svg">
    <path d="M12.0008 16C13.2508 16 14.3133 15.5625 15.1883 14.6875C16.0633 13.8125 16.5008 12.75 16.5008 11.5C16.5008 10.25 16.0633 9.1875 15.1883 8.3125C14.3133 7.4375 13.2508 7 12.0008 7C10.7508 7 9.68828 7.4375 8.81328 8.3125C7.93828 9.1875 7.50078 10.25 7.50078 11.5C7.50078 12.75 7.93828 13.8125 8.81328 14.6875C9.68828 15.5625 10.7508 16 12.0008 16ZM12.0008 14.2C11.2508 14.2 10.6133 13.9375 10.0883 13.4125C9.56328 12.8875 9.30078 12.25 9.30078 11.5C9.30078 10.75 9.56328 10.1125 10.0883 9.5875C10.6133 9.0625 11.2508 8.8 12.0008 8.8C12.7508 8.8 13.3883 9.0625 13.9133 9.5875C14.4383 10.1125 14.7008 10.75 14.7008 11.5C14.7008 12.25 14.4383 12.8875 13.9133 13.4125C13.3883 13.9375 12.7508 14.2 12.0008 14.2ZM12.0008 19C9.68411 19 7.56745 18.3875 5.65078 17.1625C3.73411 15.9375 2.28411 14.2833 1.30078 12.2C1.25078 12.1167 1.21745 12.0125 1.20078 11.8875C1.18411 11.7625 1.17578 11.6333 1.17578 11.5C1.17578 11.3667 1.18411 11.2375 1.20078 11.1125C1.21745 10.9875 1.25078 10.8833 1.30078 10.8C2.28411 8.71667 3.73411 7.0625 5.65078 5.8375C7.56745 4.6125 9.68411 4 12.0008 4C14.3174 4 16.4341 4.6125 18.3508 5.8375C20.2674 7.0625 21.7174 8.71667 22.7008 10.8C22.7508 10.8833 22.7841 10.9875 22.8008 11.1125C22.8174 11.2375 22.8258 11.3667 22.8258 11.5C22.8258 11.6333 22.8174 11.7625 22.8008 11.8875C22.7841 12.0125 22.7508 12.1167 22.7008 12.2C21.7174 14.2833 20.2674 15.9375 18.3508 17.1625C16.4341 18.3875 14.3174 19 12.0008 19ZM12.0008 17C13.8841 17 15.6133 16.5042 17.1883 15.5125C18.7633 14.5208 19.9674 13.1833 20.8008 11.5C19.9674 9.81667 18.7633 8.47917 17.1883 7.4875C15.6133 6.49583 13.8841 6 12.0008 6C10.1174 6 8.38828 6.49583 6.81328 7.4875C5.23828 8.47917 4.03411 9.81667 3.20078 11.5C4.03411 13.1833 5.23828 14.5208 6.81328 15.5125C8.38828 16.5042 10.1174 17 12.0008 17Z" fill="black"/>
</svg>
