<svg width="43" height="42" viewBox="0 0 43 42" fill="none" xmlns="http://www.w3.org/2000/svg">
<path id="Share icon" d="M11.7667 9C7.11917 9 3.31667 12.7125 3.31667 17.25C3.31667 19.978 4.69261 22.4062 6.79384 23.9105C3.08007 25.709 0.5 29.438 0.5 33.75H3.31667C3.31667 29.1795 7.08537 25.5 11.7667 25.5C16.448 25.5 20.2167 29.1795 20.2167 33.75H23.0333C23.0333 29.1795 26.802 25.5 31.4833 25.5C36.1646 25.5 39.9333 29.1795 39.9333 33.75H42.75C42.75 29.4366 40.1699 25.709 36.4562 23.9105C37.5314 23.1455 38.4067 22.1437 39.0109 20.9864C39.6151 19.8291 39.9311 18.549 39.9333 17.25C39.9333 12.7125 36.1308 9 31.4833 9C26.8358 9 23.0333 12.7125 23.0333 17.25C23.0333 19.978 24.4093 22.4062 26.5105 23.9105C24.4528 24.8982 22.7496 26.471 21.625 28.4219C20.5004 26.471 18.7972 24.8982 16.7395 23.9105C17.8148 23.1455 18.69 22.1437 19.2942 20.9864C19.8984 19.8291 20.2144 18.549 20.2167 17.25C20.2167 12.7125 16.4142 9 11.7667 9ZM11.7667 11.75C14.8974 11.75 17.4 14.1934 17.4 17.25C17.4 20.3066 14.8974 22.75 11.7667 22.75C8.63594 22.75 6.13333 20.3066 6.13333 17.25C6.13333 14.1934 8.63594 11.75 11.7667 11.75ZM31.4833 11.75C34.6141 11.75 37.1167 14.1934 37.1167 17.25C37.1167 20.3066 34.6141 22.75 31.4833 22.75C28.3526 22.75 25.85 20.3066 25.85 17.25C25.85 14.1934 28.3526 11.75 31.4833 11.75Z" fill="black"/>

</svg>
